<svg width="153" height="153" viewBox="0 0 153 153" fill="none" xmlns="http://www.w3.org/2000/svg">
<path d="M84.5 117C87.1667 117 89.5 117 91.5 117C93.5 116.933 95.4667 116.433 97.4 115.5C98.5333 114.9 99.5 114.167 100.3 113.3C101.167 112.367 101.8 111.3 102.2 110.1C102.667 108.9 102.9 107.6 102.9 106.2C102.9 104.533 102.6 103.067 102 101.8C101.4 100.533 100.533 99.4667 99.4 98.6C98.3333 97.6667 97.0333 96.9667 95.5 96.5C94.7667 96.3 93.9 96.1333 92.9 96C91.9667 95.8667 90.8 95.8 89.4 95.8C88.0667 95.7333 86.4333 95.7 84.5 95.7C82.8333 95.7 81.5667 95.2667 80.7 94.4C79.8333 93.4667 79.4 92.4 79.4 91.2C79.4 90 79.8333 88.9667 80.7 88.1C81.5667 87.1667 82.8333 86.7 84.5 86.7C86.0333 86.7 87.4333 86.6667 88.7 86.6C90.0333 86.5333 91.2333 86.4333 92.3 86.3C93.3667 86.1667 94.2 85.9667 94.8 85.7C96.4 85.0333 97.6667 84.0667 98.6 82.8C99.6 81.5333 100.1 79.6667 100.1 77.2C100.1 75 99.6 73.1333 98.6 71.6C97.6667 70.0667 96.3 68.9333 94.5 68.2C92.7667 67.4 90.7 67 88.3 67C86.9667 67 85.7333 67 84.6 67C83.4667 67 82.4667 67 81.6 67C80.3333 67 79.4333 67.1 78.9 67.3C78.4333 67.4333 78.1667 67.7667 78.1 68.3C78.0333 68.8333 78 69.7333 78 71C78 73.4 78 75.9333 78 78.6C78 81.2667 78 84.1 78 87.1C78 90.1 78 93.2333 78 96.5C78 99.7667 78 103.2 78 106.8C78 109.467 78 111.933 78 114.2C78 116.4 78 118.833 78 121.5C78 123.167 77.5333 124.433 76.6 125.3C75.7333 126.167 74.7 126.6 73.5 126.6C72.3 126.6 71.2333 126.167 70.3 125.3C69.4333 124.433 69 123.167 69 121.5C69 119.3 69 116.867 69 114.2C69 111.467 69 109 69 106.8C69 104.4 69 101.867 69 99.2C69 96.4667 69 93.6333 69 90.7C69 87.7 69 84.5667 69 81.3C69 77.9667 69 74.5333 69 71C69 68 69.4 65.5333 70.2 63.6C71.0667 61.6667 72.4 60.2667 74.2 59.4C76.0667 58.4667 78.5333 58 81.6 58C82.9333 58 84.1333 58 85.2 58C86.3333 58 87.3667 58 88.3 58C91.4333 58 94.2667 58.4667 96.8 59.4C99.3333 60.2667 101.5 61.5667 103.3 63.3C105.167 64.9667 106.6 67 107.6 69.4C108.6 71.7333 109.1 74.3333 109.1 77.2C109.1 80.2 108.567 82.7333 107.5 84.8C106.5 86.8667 105.167 88.6 103.5 90C101.833 91.3333 100.067 92.5 98.2 93.5C96.6 94.3 94.6333 94.8667 92.3 95.2C90.0333 95.5333 87.4333 95.7 84.5 95.7C83.1667 95.7 82.0667 95.4 81.2 94.8C80.4 94.2 79.8667 93.4667 79.6 92.6C79.3333 91.6667 79.3333 90.7667 79.6 89.9C79.8667 88.9667 80.4 88.2 81.2 87.6C82.0667 87 83.1667 86.7 84.5 86.7C85.6333 86.7 86.8 86.7333 88 86.8C89.2667 86.8 90.4667 86.8667 91.6 87C92.8 87.0667 93.9 87.2 94.9 87.4C95.9667 87.5333 96.8667 87.7 97.6 87.9C100.467 88.7667 102.967 90.0667 105.1 91.8C107.233 93.5333 108.9 95.6333 110.1 98.1C111.3 100.567 111.9 103.267 111.9 106.2C111.9 108.8 111.467 111.2 110.6 113.4C109.733 115.6 108.5 117.567 106.9 119.3C105.367 121.033 103.533 122.433 101.4 123.5C99.6 124.433 97.9 125.067 96.3 125.4C94.7 125.733 92.9667 125.933 91.1 126C89.2333 126 87.0333 126 84.5 126C82.8333 126 81.5667 125.567 80.7 124.7C79.8333 123.767 79.4 122.7 79.4 121.5C79.4 120.3 79.8333 119.267 80.7 118.4C81.5667 117.467 82.8333 117 84.5 117Z" fill="#14759C"/>
<path d="M91.1 37.2C90.0333 39.1333 89 41.0667 88 43C87 44.8667 85.9667 46.7333 84.9 48.6C83.5667 51 82.3333 53.2333 81.2 55.3C80.0667 57.3667 78.9333 59.4333 77.8 61.5C76.6667 63.5667 75.4667 65.8 74.2 68.2C73.2667 69.9333 72.4333 71.8 71.7 73.8C70.9667 75.8 70.6 77.9333 70.6 80.2C70.6 81.6667 70.6 83.0667 70.6 84.4C70.6 85.7333 70.6 87 70.6 88.2C70.6 89.4 70.6 90.5667 70.6 91.7C70.6 92.8333 70.6 93.9333 70.6 95C70.6 96.3333 70.3 97.4333 69.7 98.3C69.1 99.1 68.3333 99.6333 67.4 99.9C66.5333 100.167 65.6333 100.167 64.7 99.9C63.8333 99.6333 63.1 99.1 62.5 98.3C61.9 97.4333 61.6 96.3333 61.6 95C61.6 94 61.6 92.9667 61.6 91.9C61.6 90.8333 61.6 89.7 61.6 88.5C61.6 87.3 61.6 86 61.6 84.6C61.6 83.2 61.6 81.7 61.6 80.1C61.6 77.5667 61.4 75.5 61 73.9C60.6667 72.3 60.1333 70.8667 59.4 69.6C58.7333 68.2667 57.8667 66.9 56.8 65.5C55.8 64.0333 54.6667 62.2 53.4 60C52.3333 58.0667 51.3333 56.3 50.4 54.7C49.4667 53.0333 48.5333 51.3333 47.6 49.6C46.7333 47.8667 45.7667 46 44.7 44C43.6333 42 42.4 39.7 41 37.1C40.2 35.6333 40 34.3333 40.4 33.2C40.8 32 41.5333 31.1333 42.6 30.6C43.6667 30 44.8 29.8667 46 30.2C47.2 30.4667 48.2 31.3667 49 32.9C50.3333 35.4333 51.5333 37.7 52.6 39.7C53.6667 41.6333 54.6333 43.4667 55.5 45.2C56.4333 46.8667 57.3333 48.5333 58.2 50.2C59.1333 51.8667 60.1333 53.6333 61.2 55.5C62.8 58.2333 64.1667 60.5 65.3 62.3C66.5 64.0333 67.5 65.6667 68.3 67.2C69.1 68.7333 69.6667 70.5 70 72.5C70.4 74.4333 70.6 76.9667 70.6 80.1C70.6 82.1 70.6 83.9667 70.6 85.7C70.6 87.4333 70.6 89.0667 70.6 90.6C70.6 92.0667 70.6 93.5333 70.6 95C70.6 96.3333 70.3 97.4333 69.7 98.3C69.1 99.1 68.3333 99.6333 67.4 99.9C66.5333 100.167 65.6333 100.167 64.7 99.9C63.8333 99.6333 63.1 99.1 62.5 98.3C61.9 97.4333 61.6 96.3333 61.6 95C61.6 94 61.6 92.9667 61.6 91.9C61.6 90.8333 61.6 89.7 61.6 88.5C61.6 87.3 61.6 86.0333 61.6 84.7C61.6 83.3 61.6 81.8 61.6 80.2C61.6 77.0667 62.0333 74.1667 62.9 71.5C63.8333 68.8333 64.9333 66.3333 66.2 64C67.5333 61.5333 68.7667 59.2667 69.9 57.2C71.0333 55.1333 72.1667 53.0667 73.3 51C74.4333 48.9333 75.7 46.6667 77.1 44.2C77.7667 42.9333 78.4333 41.6667 79.1 40.4C79.7667 39.1333 80.4333 37.8667 81.1 36.6C81.8333 35.3333 82.5667 34.0667 83.3 32.8C84.1 31.3333 85.1 30.4667 86.3 30.2C87.5 29.8667 88.6 30 89.6 30.6C90.6667 31.1333 91.4 32 91.8 33.2C92.2 34.4 91.9667 35.7333 91.1 37.2Z" fill="#E1E1E1"/>
</svg>
